<svg xmlns="http://www.w3.org/2000/svg" width="136" height="41" viewBox="0 0 136 41" fill="none"><path opacity="0.8" d="M23.633 4.97977C27.0597 6.8053 25.936 15.6086 21.1233 24.6426C16.3106 33.6765 9.63122 39.5201 6.20454 37.6946C2.77787 35.869 3.90149 27.0657 8.71422 18.0318C13.527 8.99783 20.2063 3.15425 23.633 4.97977Z" fill="#EDEDED"></path><path d="M38.6631 36.9987C35.3288 38.988 28.2279 33.2288 22.8027 24.1353C17.3776 15.0417 15.6826 6.05736 19.0169 4.06813C22.3512 2.0789 29.4522 7.83808 34.8773 16.9316C40.3025 26.0251 41.9975 35.0095 38.6631 36.9987Z" fill="#FF4E4B"></path><path d="M49.3198 5V33H67.5598V28.2H54.5998V5H49.3198ZM69.0945 22.92C69.0945 29.08 73.3745 33.56 79.2945 33.56C84.6145 33.56 86.9345 30.76 88.2945 28.68L84.1745 26.28C83.4945 27.68 82.0145 29.24 79.2145 29.24C76.3345 29.24 74.4545 27.2 74.2545 24.56H88.6945V22.6C88.6945 16.64 84.8145 12.6 79.0545 12.6C73.2145 12.6 69.0945 16.92 69.0945 22.92ZM74.2945 21.04C74.6945 18.6 76.1745 16.92 79.0145 16.92C81.6145 16.92 83.2145 18.52 83.5745 21.04H74.2945ZM91.1779 17.72L95.2579 20.36C96.4979 18.28 98.1379 16.92 100.778 16.92C103.498 16.92 104.938 18.4 104.938 20.28V20.76L97.3379 21.6C93.5379 22 90.7779 24.2 90.7779 27.36C90.7779 31.16 93.7379 33.56 98.2179 33.56C102.418 33.56 103.818 31.52 104.458 30.2H105.018V33H109.978V20.32C109.978 15.68 106.458 12.6 101.058 12.6C96.2179 12.6 93.5379 14.76 91.1779 17.72ZM96.0579 27.08C96.0579 25.92 96.9779 25.24 98.8579 25L104.938 24.28V24.6C104.938 27.32 102.978 29.4 99.4579 29.4C97.2179 29.4 96.0579 28.44 96.0579 27.08ZM114.201 41H119.241V30.2H119.721C120.761 31.88 122.521 33.56 126.041 33.56C131.001 33.56 135.161 29.16 135.161 23.08C135.161 17 131.001 12.6 126.041 12.6C122.521 12.6 120.761 14.28 119.721 15.96H119.161V13.16H114.201V41ZM124.681 29.08C121.561 29.08 119.241 26.84 119.241 23.08C119.241 19.32 121.561 17.08 124.681 17.08C127.721 17.08 130.121 19.24 130.121 23.08C130.121 26.92 127.721 29.08 124.681 29.08Z" fill="white"></path></svg>